# xmcd CD database file
#
# Track frame offsets:
#	150
#	15765
#	31285
#	45530
#	60030
#	75987
#	92925
#	106280
#	118812
#	137322
#	152332
#	166660
#	180162
#	196210
#	210162
#
# Disc length: 3010 seconds
#
# Revision: 0
# Processed by: cddbd v1.5.2PL0 Copyright (c) Steve Scherf et al.
# Submitted via: CDex 1.51
#
DISCID=960bc00f
DTITLE=Share The Dream [fundraiser] - No. 1 Country Hits Of 1991
DYEAR=1992
DGENRE=Country
TTITLE0=Alabama - Down Home
TTITLE1=Dolly Parton, Ricky Van Shelton - Rockin' Years
TTITLE2=Clint Black - Where Are You Now
TTITLE3=Pam Tillis - Don't Tell Me What To Do
TTITLE4=Paul Overstreet - Daddy's Cme Around
TTITLE5=George Strait - I've Come To Expect It
TTITLE6=Hal Ketchum - Small Town Saturday Night
TTITLE7=Joe Diffie - If The Devil Danced
TTITLE8=Trisha Yearwood - She's In Love With The Boy
TTITLE9=Keith Whitley - Brotherly Love
TTITLE10=Alan Jackson - I'd Love You All Over Again
TTITLE11=Brooks and Dunn - Brand New Man
TTITLE12=Doug Stone - I Thought It Was You
TTITLE13=Mark Chesnutt - Brother Jukebox
TTITLE14=Tanya Tucker - Down To My Last Teardrop
EXTD=YEAR: 1992
EXTT0=
EXTT1=
EXTT2=
EXTT3=
EXTT4=
EXTT5=
EXTT6=
EXTT7=
EXTT8=
EXTT9=
EXTT10=
EXTT11=
EXTT12=
EXTT13=
EXTT14=
PLAYORDER=
